<svg id="Layer_1" data-name="Layer 1" xmlns="http://www.w3.org/2000/svg" viewBox="0 0 800 240"><defs><style>.cls-1{fill:#323232}</style></defs><path class="cls-1" d="M277 89.16a49.25 49.25 0 1 1-98.5.23v-.23A89.27 89.27 0 0 0 0 88.86v.3h40a49.25 49.25 0 0 1 98.5-.22v.22a89.27 89.27 0 0 0 178.54.3v-.3H277z"/><path transform="translate(401 130)" class="cls-1" d="M277 89.16a49.25 49.25 0 1 1-98.5.23v-.23A89.27 89.27 0 0 0 0 88.86v.3h40a49.25 49.25 0 0 1 98.5-.22v.22a89.27 89.27 0 0 0 178.54.3v-.3H277z"/><path transform="translate(401 -110)" class="cls-1" d="M277 89.16a49.25 49.25 0 1 1-98.5.23v-.23A89.27 89.27 0 0 0 0 88.86v.3h40a49.25 49.25 0 0 1 98.5-.22v.22a89.27 89.27 0 0 0 178.54.3v-.3H277z"/></svg>